<mxfile host="app.diagrams.net" modified="2023-05-23T15:10:42.937Z" agent="Mozilla/5.0 (Windows NT 10.0; Win64; x64) AppleWebKit/537.36 (KHTML, like Gecko) Chrome/113.0.0.0 Safari/537.36" etag="BNV33eLoW2kWOMy4MKtY" version="21.3.2" type="device">
  <diagram id="C5RBs43oDa-KdzZeNtuy" name="Page-1">
    <mxGraphModel dx="1767" dy="636" grid="1" gridSize="10" guides="1" tooltips="1" connect="1" arrows="1" fold="1" page="1" pageScale="1" pageWidth="827" pageHeight="1169" math="0" shadow="0">
      <root>
        <mxCell id="WIyWlLk6GJQsqaUBKTNV-0" />
        <mxCell id="WIyWlLk6GJQsqaUBKTNV-1" parent="WIyWlLk6GJQsqaUBKTNV-0" />
        <mxCell id="o6iEz9svOuSVI9pk4N0p-0" value="" style="edgeStyle=orthogonalEdgeStyle;rounded=0;orthogonalLoop=1;jettySize=auto;html=1;" edge="1" parent="WIyWlLk6GJQsqaUBKTNV-1" source="o6iEz9svOuSVI9pk4N0p-1" target="o6iEz9svOuSVI9pk4N0p-3">
          <mxGeometry relative="1" as="geometry" />
        </mxCell>
        <mxCell id="o6iEz9svOuSVI9pk4N0p-1" value="开始" style="strokeWidth=2;html=1;shape=mxgraph.flowchart.terminator;whiteSpace=wrap;" vertex="1" parent="WIyWlLk6GJQsqaUBKTNV-1">
          <mxGeometry x="422.76" y="310" width="115" height="50" as="geometry" />
        </mxCell>
        <mxCell id="o6iEz9svOuSVI9pk4N0p-3" value="前端提交处理申请表单" style="whiteSpace=wrap;html=1;strokeWidth=2;" vertex="1" parent="WIyWlLk6GJQsqaUBKTNV-1">
          <mxGeometry x="390.51" y="400" width="179.5" height="40" as="geometry" />
        </mxCell>
        <mxCell id="o6iEz9svOuSVI9pk4N0p-8" value="" style="edgeStyle=orthogonalEdgeStyle;rounded=0;orthogonalLoop=1;jettySize=auto;html=1;exitX=0.5;exitY=1;exitDx=0;exitDy=0;entryX=0.5;entryY=0;entryDx=0;entryDy=0;" edge="1" parent="WIyWlLk6GJQsqaUBKTNV-1" source="o6iEz9svOuSVI9pk4N0p-3" target="o6iEz9svOuSVI9pk4N0p-62">
          <mxGeometry relative="1" as="geometry">
            <mxPoint x="480.25" y="440" as="sourcePoint" />
            <mxPoint x="480" y="470" as="targetPoint" />
          </mxGeometry>
        </mxCell>
        <mxCell id="o6iEz9svOuSVI9pk4N0p-20" value="" style="edgeStyle=orthogonalEdgeStyle;rounded=0;orthogonalLoop=1;jettySize=auto;html=1;entryX=0.5;entryY=0;entryDx=0;entryDy=0;" edge="1" parent="WIyWlLk6GJQsqaUBKTNV-1" source="o6iEz9svOuSVI9pk4N0p-14" target="o6iEz9svOuSVI9pk4N0p-34">
          <mxGeometry relative="1" as="geometry">
            <mxPoint x="479.7399999999998" y="645" as="targetPoint" />
          </mxGeometry>
        </mxCell>
        <mxCell id="o6iEz9svOuSVI9pk4N0p-14" value="后端调用对应Controller处理" style="whiteSpace=wrap;html=1;strokeWidth=2;" vertex="1" parent="WIyWlLk6GJQsqaUBKTNV-1">
          <mxGeometry x="390.51" y="585" width="179.5" height="40" as="geometry" />
        </mxCell>
        <mxCell id="o6iEz9svOuSVI9pk4N0p-15" value="结束" style="strokeWidth=2;html=1;shape=mxgraph.flowchart.terminator;whiteSpace=wrap;" vertex="1" parent="WIyWlLk6GJQsqaUBKTNV-1">
          <mxGeometry x="419.62" y="825" width="120.25" height="42" as="geometry" />
        </mxCell>
        <mxCell id="o6iEz9svOuSVI9pk4N0p-16" value="N" style="text;html=1;align=center;verticalAlign=middle;resizable=0;points=[];autosize=1;strokeColor=none;fillColor=none;" vertex="1" parent="WIyWlLk6GJQsqaUBKTNV-1">
          <mxGeometry x="489.48" y="785" width="30" height="30" as="geometry" />
        </mxCell>
        <mxCell id="o6iEz9svOuSVI9pk4N0p-70" style="edgeStyle=orthogonalEdgeStyle;rounded=0;orthogonalLoop=1;jettySize=auto;html=1;" edge="1" parent="WIyWlLk6GJQsqaUBKTNV-1" source="o6iEz9svOuSVI9pk4N0p-25">
          <mxGeometry relative="1" as="geometry">
            <mxPoint x="480" y="810" as="targetPoint" />
            <Array as="points">
              <mxPoint x="280" y="810" />
            </Array>
          </mxGeometry>
        </mxCell>
        <mxCell id="o6iEz9svOuSVI9pk4N0p-25" value="返回error" style="whiteSpace=wrap;html=1;strokeWidth=2;" vertex="1" parent="WIyWlLk6GJQsqaUBKTNV-1">
          <mxGeometry x="240" y="640" width="80" height="40" as="geometry" />
        </mxCell>
        <mxCell id="o6iEz9svOuSVI9pk4N0p-43" value="" style="edgeStyle=orthogonalEdgeStyle;rounded=0;orthogonalLoop=1;jettySize=auto;html=1;entryX=0.5;entryY=0;entryDx=0;entryDy=0;" edge="1" parent="WIyWlLk6GJQsqaUBKTNV-1" source="o6iEz9svOuSVI9pk4N0p-34" target="o6iEz9svOuSVI9pk4N0p-69">
          <mxGeometry relative="1" as="geometry">
            <mxPoint x="479.51448275862083" y="725.0095785440612" as="targetPoint" />
          </mxGeometry>
        </mxCell>
        <mxCell id="o6iEz9svOuSVI9pk4N0p-34" value="向区块链发送更新申请的请求" style="whiteSpace=wrap;html=1;strokeWidth=2;" vertex="1" parent="WIyWlLk6GJQsqaUBKTNV-1">
          <mxGeometry x="390.51" y="665" width="179.5" height="40" as="geometry" />
        </mxCell>
        <mxCell id="o6iEz9svOuSVI9pk4N0p-45" style="edgeStyle=orthogonalEdgeStyle;rounded=0;orthogonalLoop=1;jettySize=auto;html=1;entryX=0.5;entryY=0;entryDx=0;entryDy=0;exitX=0;exitY=0.5;exitDx=0;exitDy=0;" edge="1" parent="WIyWlLk6GJQsqaUBKTNV-1" source="o6iEz9svOuSVI9pk4N0p-62" target="o6iEz9svOuSVI9pk4N0p-25">
          <mxGeometry relative="1" as="geometry">
            <mxPoint x="390.1241379310343" y="764.9655172413793" as="sourcePoint" />
          </mxGeometry>
        </mxCell>
        <mxCell id="o6iEz9svOuSVI9pk4N0p-46" style="edgeStyle=orthogonalEdgeStyle;rounded=0;orthogonalLoop=1;jettySize=auto;html=1;entryX=0.5;entryY=0;entryDx=0;entryDy=0;entryPerimeter=0;" edge="1" parent="WIyWlLk6GJQsqaUBKTNV-1" target="o6iEz9svOuSVI9pk4N0p-15">
          <mxGeometry relative="1" as="geometry">
            <mxPoint x="479.51448275862083" y="774.9904214559385" as="sourcePoint" />
            <mxPoint x="479.75" y="815" as="targetPoint" />
          </mxGeometry>
        </mxCell>
        <mxCell id="o6iEz9svOuSVI9pk4N0p-64" style="edgeStyle=orthogonalEdgeStyle;rounded=0;orthogonalLoop=1;jettySize=auto;html=1;entryX=0.5;entryY=0;entryDx=0;entryDy=0;" edge="1" parent="WIyWlLk6GJQsqaUBKTNV-1" source="o6iEz9svOuSVI9pk4N0p-62" target="o6iEz9svOuSVI9pk4N0p-14">
          <mxGeometry relative="1" as="geometry" />
        </mxCell>
        <mxCell id="o6iEz9svOuSVI9pk4N0p-62" value="过期时间是否大于当前时间" style="rhombus;whiteSpace=wrap;html=1;strokeWidth=2;" vertex="1" parent="WIyWlLk6GJQsqaUBKTNV-1">
          <mxGeometry x="390.52" y="478" width="179.49" height="72" as="geometry" />
        </mxCell>
        <mxCell id="o6iEz9svOuSVI9pk4N0p-65" value="Y" style="text;html=1;align=center;verticalAlign=middle;resizable=0;points=[];autosize=1;strokeColor=none;fillColor=none;" vertex="1" parent="WIyWlLk6GJQsqaUBKTNV-1">
          <mxGeometry x="490" y="568" width="30" height="30" as="geometry" />
        </mxCell>
        <mxCell id="o6iEz9svOuSVI9pk4N0p-67" value="N" style="text;html=1;align=center;verticalAlign=middle;resizable=0;points=[];autosize=1;strokeColor=none;fillColor=none;" vertex="1" parent="WIyWlLk6GJQsqaUBKTNV-1">
          <mxGeometry x="290" y="490" width="30" height="30" as="geometry" />
        </mxCell>
        <mxCell id="o6iEz9svOuSVI9pk4N0p-69" value="处理区块链返回的结果并将处理后的结果响应给前端" style="whiteSpace=wrap;html=1;strokeWidth=2;" vertex="1" parent="WIyWlLk6GJQsqaUBKTNV-1">
          <mxGeometry x="390.51" y="745" width="179.5" height="40" as="geometry" />
        </mxCell>
      </root>
    </mxGraphModel>
  </diagram>
</mxfile>
